<?xml version="1.0" encoding="utf-8"?>
<!-- Generator: Adobe Illustrator 24.3.0, SVG Export Plug-In . SVG Version: 6.00 Build 0)  -->
<svg version="1.1" id="Layer_1" focusable="false" xmlns="http://www.w3.org/2000/svg" xmlns:xlink="http://www.w3.org/1999/xlink"
	 x="0px" y="0px" viewBox="0 0 496 512" style="enable-background:new 0 0 496 512;" xml:space="preserve">
<style type="text/css">
	.st0{fill:#EA4C89;}
</style>
<path class="st0" d="M336.5,160C322.1,70.7,287.9,8,248.1,8c-39.8,0-74,62.7-88.6,152L336.5,160z M152,256c0,22.2,1.2,43.5,3.3,64
	l185.3,0.1c2.1-20.5,3.3-41.8,3.3-64c0-22.2-1.2-43.5-3.3-64L155.3,192C153.2,212.5,152,233.8,152,256z M476.7,160.1
	C448.2,92.2,390.3,39.7,318.8,18.4c24.4,33.8,41.2,84.7,49.9,141.6L476.7,160.1z M177.3,18.4C105.9,39.5,47.9,92,19.3,159.9l108,0
	C136.1,103.1,152.9,52.2,177.3,18.4L177.3,18.4z M487.4,192.1l-114.7,0c2.1,21,3.3,42.5,3.3,64c0,21.5-1.2,43-3.3,64l114.6,0
	c5.5-20.5,8.6-41.8,8.6-64C495.9,233.9,492.8,212.6,487.4,192.1L487.4,192.1z M120,256c0-21.5,1.2-43,3.3-64l-114.7,0
	c-5.4,20.5-8.6,41.8-8.6,64s3.2,43.5,8.6,64l114.6,0C121.2,299,120,277.5,120,256z M159.5,352c14.5,89.3,48.6,152,88.4,152
	s74-62.7,88.6-152L159.5,352z M318.7,493.6c71.4-21.2,129.4-73.7,158.1-141.5l-108,0C359.9,408.9,343.1,459.8,318.7,493.6z
	 M19.3,351.9c28.6,67.9,86.5,120.4,157.9,141.7c-24.4-33.8-41.2-84.7-49.9-141.6C127.3,352,19.3,351.9,19.3,351.9z"/>
</svg>
