<?xml version="1.0" encoding="utf-8"?>
<!-- Generator: Adobe Illustrator 24.3.0, SVG Export Plug-In . SVG Version: 6.00 Build 0)  -->
<svg version="1.1" id="Layer_1" xmlns="http://www.w3.org/2000/svg" xmlns:xlink="http://www.w3.org/1999/xlink" x="0px" y="0px"
	 viewBox="0 0 606.8 647.4" style="enable-background:new 0 0 606.8 647.4;" xml:space="preserve">
<style type="text/css">
	.st0{fill:#EA4C89;}
	.st1{fill:#D90F6D;}
	.st2{fill:#FF6759;}
</style>
<g transform="matrix(1, 0, 0, 1, 765.23, 172.01)">
	<circle id="Ellipse_1-2" class="st0" cx="-309.7" cy="155.4" r="150.3"/>
</g>
<circle id="Ellipse_2" class="st1" cx="457" cy="322.6" r="86.9"/>
<circle id="Ellipse_3" class="st1" cx="517.7" cy="87" r="87"/>
<circle id="Ellipse_4" class="st2" cx="457" cy="322.6" r="19"/>
<path id="Path_1" class="st1" d="M129,16.1c0,83.2,67.4,150.6,150.6,150.6V16.1H129z"/>
<path id="Path_2" class="st0" d="M279.6,166.7h150.6v0c0-83.2-67.4-150.6-150.6-150.6V166.7z"/>
<path id="Path_3" class="st1" d="M-1,340.9c0,83.2,67.4,150.6,150.6,150.6V340.9H-1z"/>
<path id="Path_4" class="st0" d="M149.6,491.5h150.6l0,0c0-83.2-67.4-150.6-150.6-150.6V491.5z"/>
<path id="Path_5" class="st0" d="M300.3,647.4H149.6l0,0c0-83.2,67.4-150.6,150.6-150.6V647.4z"/>
<path id="Path_6" class="st0" d="M454.1,647.3c-83,0-150.3-67.3-150.3-150.3h300.6C604.4,580,537.1,647.3,454.1,647.3z"/>
</svg>
